<?xml version="1.0" encoding="UTF-8"?>
<!DOCTYPE svg PUBLIC "-//W3C//DTD SVG 1.1//EN" "http://www.w3.org/Graphics/SVG/1.1/DTD/svg11.dtd">
<svg xmlns="http://www.w3.org/2000/svg" version="1.1" width="500px" height="500px" style="shape-rendering:geometricPrecision; text-rendering:geometricPrecision; image-rendering:optimizeQuality; fill-rule:evenodd; clip-rule:evenodd" xmlns:xlink="http://www.w3.org/1999/xlink" viewBox="0 0 250 500">
<g><path style="opacity:0.381" fill="#003174" d="M 354.5,128.5 C 284.499,128.333 214.499,128.5 144.5,129C 139.663,130.247 135.663,132.747 132.5,136.5C 134.576,131.776 138.242,128.942 143.5,128C 214.001,127.168 284.335,127.335 354.5,128.5 Z"/></g>
<g><path style="opacity:1" fill="#010b19" d="M 354.5,128.5 C 362.974,130.729 368.308,136.063 370.5,144.5C 370.667,214.501 370.5,284.501 370,354.5C 369.392,356.154 368.892,357.821 368.5,359.5C 365.525,365.301 360.858,369.134 354.5,371C 284.167,371.667 213.833,371.667 143.5,371C 135.911,367.745 130.744,362.245 128,354.5C 127.333,284.167 127.333,213.833 128,143.5C 129.026,140.761 130.526,138.428 132.5,136.5C 135.663,132.747 139.663,130.247 144.5,129C 214.499,128.5 284.499,128.333 354.5,128.5 Z"/></g>
<g><path style="opacity:0.341" fill="#00347b" d="M 370.5,144.5 C 371.665,214.665 371.832,284.999 371,355.5C 370.8,357.32 369.966,358.653 368.5,359.5C 368.892,357.821 369.392,356.154 370,354.5C 370.5,284.501 370.667,214.501 370.5,144.5 Z"/></g>
<g><path style="opacity:1" fill="#43e57f" d="M 231.5,157.5 C 268.577,153.513 301.577,163.013 330.5,186C 356.668,210.506 362.168,239.006 347,271.5C 332.006,294.272 311.173,309.105 284.5,316C 257.977,321.236 231.644,320.402 205.5,313.5C 190.929,321.858 175.263,327.358 158.5,330C 153.833,330.667 149.167,330.667 144.5,330C 152.5,324.667 160.5,319.333 168.5,314C 173.4,310.436 176.734,305.769 178.5,300C 165.731,288.891 155.564,275.724 148,260.5C 140.688,240.7 142.355,221.7 153,203.5C 165.41,185.529 181.91,172.696 202.5,165C 212.095,161.686 221.762,159.186 231.5,157.5 Z"/></g>
<g><path style="opacity:1" fill="#000000" d="M 170.5,198.5 C 221.834,198.333 273.168,198.5 324.5,199C 327.366,200.393 328.699,202.726 328.5,206C 328.592,208.814 327.592,211.147 325.5,213C 273.833,213.667 222.167,213.667 170.5,213C 166.609,208.238 166.609,203.405 170.5,198.5 Z"/></g>
<g><path style="opacity:1" fill="#000000" d="M 172.5,228.5 C 223.501,228.333 274.501,228.5 325.5,229C 328.516,230.529 329.849,233.029 329.5,236.5C 329.922,240.511 328.255,243.011 324.5,244C 273.833,244.667 223.167,244.667 172.5,244C 170.051,242.137 169.051,239.637 169.5,236.5C 169.078,233.218 170.078,230.552 172.5,228.5 Z"/></g>
<g><path style="opacity:1" fill="#000000" d="M 172.5,259.5 C 223.834,259.333 275.168,259.5 326.5,260C 330.5,264.667 330.5,269.333 326.5,274C 274.833,274.667 223.167,274.667 171.5,274C 169.544,270.405 169.044,266.572 170,262.5C 170.698,261.309 171.531,260.309 172.5,259.5 Z"/></g>
</svg>
